#!OML:ASF F:\VICON\USERDATA\INSTALL\rory3\rory3.ASF
:FULLY-SPECIFIED
:DEGREES
45
root 0.051438403468381244 18.16572440353405 4.9363697566655516 -3.1634143968616812 -3.149786658884549 -5.365900453229559
lfemur -20.680753929098774 3.49977901482571 -13.2231028151677
ltibia 62.73694525959002
lfoot -6.983276412374533 -1.4056648487380397
ltoes -9.632334252693711
rfemur -9.032391764243954 6.9844611682878 31.65438564124971
rtibia 31.474593126105965
rfoot -9.778377965483982 -11.60426330489502
rtoes 7.871508476455354
lowerback 10.888900168068897 0.9769811518263264 4.007930922629517
upperback 0.39464376144524305 1.9141897943602655 2.3690440006184184
thorax -5.073729562154331 0.8656593578930243 -0.30078742052821006
lowerneck -15.801971018977943 -2.9018887240282814 -2.2394442520436897
upperneck 21.095417562634083 -3.6823271912355247 0.8652879966173227
head 9.398207340635931 -1.7709966321934305 0.18670066828548731
lclavicle -1.959590670892461e-15 9.004171371801331e-16
lhumerus -32.92516447083108 2.00836767251444 82.10144866406125
lradius 27.17383606901904
lwrist 6.317708611094606
lhand -26.689528533253313 23.96764249031062
lfingers 7.12502
lthumb -0.07403736155276397 53.8857626049884
rclavicle -1.9510469159166577e-15 9.087910736800796e-16
rhumerus -26.088184022018282 -11.163902982229 -82.25181207528979
rradius 28.615742657005555
rwrist 0.8638634025067446
rhand -17.289183064276525 22.888324749177208
rfingers 7.12502
rthumb 9.109262880279465 -7.4072382609357525
46
root 0.04119119908256563 18.080916638593084 5.707764405594788 -2.825513551190424 -3.7141819779510987 -6.1195918990392055
lfemur -23.265937974304226 3.0423134114717807 -12.492573707678702
ltibia 56.630843562174604
lfoot -7.313191427439843 -0.16220116944895058
ltoes -8.005056649563585
rfemur -6.950442020535352 7.362216975322209 32.65196034187704
rtibia 30.364138232094994
rfoot -10.042691567714236 -12.628121885020736
rtoes 7.298698152300208
lowerback 10.90095142750839 1.2937261373139946 5.044915076307922
upperback 0.33083676498315756 2.4734059218871796 2.3086938403101662
thorax -5.084197753770211 1.1307271563577284 -0.9033402439562949
lowerneck -15.830900599403341 -2.9219756612807464 -2.130492889282393
upperneck 20.902548294183994 -3.7431606799126933 0.9061056261730311
head 9.331172609306561 -1.7902944929486966 0.1648724446908659
lclavicle -1.9598140409443717e-15 9.000819806341882e-16
lhumerus -33.52409441208359 3.2001564528748885 81.91272868317323
lradius 26.793557265181683
lwrist 6.810553224174482
lhand -26.57637554951273 23.763897096992057
lfingers 7.12502
lthumb -0.07740520387683714 53.48724931147396
rclavicle -1.9520870768820295e-15 9.078327645510809e-16
rhumerus -25.59641404520049 -10.104181646550161 -82.66568169867514
rradius 29.681716916658882
rwrist 0.13133906088100122
rhand -17.500015603552413 23.011706647599194
rfingers 7.12502
rthumb 8.92377638168156 -7.107003871246453
47
root 0.03845943683375869 18.05536740620333 6.55421142082271 -2.692235138284858 -4.882524471839029 -6.383372955326873
lfemur -24.724090512637122 2.056204417993517 -12.142630421075708
ltibia 47.75293732964248
lfoot -7.819618618850225 0.257388678556294
ltoes -8.873402165020092
rfemur -4.804156910253871 7.5504918191743995 33.41453911807327
rtibia 28.96580713029458
rfoot -9.650804494323088 -13.245393459882195
rtoes 6.240067739783375
lowerback 10.93125687776599 1.6795398152822534 5.54559907862912
upperback 0.2675708503257004 3.0315060368742355 2.243079674716294
thorax -5.029613410076762 1.3932359425779994 -1.4272950202129433
lowerneck -15.97688351800003 -2.94457634696426 -2.04691925641209
upperneck 20.811877355230617 -3.8005252406157366 0.9282785786110169
head 9.307344685943175 -1.8084644905246539 0.13578469489024364
lclavicle -1.9603889063128398e-15 8.997379545707254e-16
lhumerus -34.22094505338653 4.323915182464494 81.67092803983608
lradius 26.41069540560791
lwrist 6.7148457394282275
lhand -26.452900260209105 23.750552196789283
lfingers 7.12502
lthumb -0.03223230591963788 53.32203351185718
rclavicle -1.952003503216898e-15 9.079095012585137e-16
rhumerus -25.093899902073254 -9.594417108522075 -82.83990566896347
rradius 30.09774677540411
rwrist 0.11179900920547325
rhand -17.679227730354434 23.557647077311813
rfingers 7.12502
rthumb 8.756436564507764 -6.358400768502982
48
root 0.036063711700987267 17.99640047290339 7.380896348123378 -2.3150335953778822 -5.767788929193442 -7.033088229321653
lfemur -25.013760267744665 -0.009169473857460808 -10.873152671538879
ltibia 36.47028059177161
lfoot -8.20449628661494 0.055168094377991195
ltoes -10.214977716264343
rfemur -2.399318930022833 7.696553413065454 34.37169128334525
rtibia 27.15923880888613
rfoot -9.578390537465703 -13.5990344614628
rtoes 4.847369610950215
lowerback 10.834491521277332 2.020558434381487 6.269183200651793
upperback 0.18592802578600093 3.4968352287517175 2.216150335245966
thorax -4.952416419198051 1.6153115807930865 -1.8414626103279592
lowerneck -16.109631496455304 -2.952792404288392 -1.9248852442950855
upperneck 20.653901218875372 -3.831236978591375 0.8716047210649878
head 9.243823600534105 -1.8172035438755925 0.07921931277199407
lclavicle -1.9586706270582353e-15 9.01383009140046e-16
lhumerus -34.99865618166624 5.289446515758467 81.40282231006489
lradius 26.102928565517082
lwrist 6.339312073397047
lhand -26.352728948640436 23.689581174747953
lfingers 7.12502
lthumb 0.047917231392710646 53.21873214126167
rclavicle -1.9524617910082785e-15 9.074875647002257e-16
rhumerus -24.800001135203587 -9.840020666468853 -82.86132684074313
rradius 30.08448506000639
rwrist 0.40050354614917705
rhand -17.74230386979308 23.890318164817675
rfingers 7.12502
rthumb 8.617244363930965 -5.974649349728127
49
root 0.049022290924277845 17.98134805474653 8.262451007830272 -1.842184747916789 -6.239510215032123 -7.053513897390923
lfemur -24.213602682540134 -2.951213171469105 -9.79633604931256
ltibia 24.146527857498516
lfoot -7.425806794091336 0.7925851227701615
ltoes -11.195754758297305
rfemur 0.03378542683097585 7.541146339706872 34.55610262264301
rtibia 25.404975738920516
rfoot -9.795841518891535 -13.555643565448225
rtoes 3.4973314132640185
lowerback 10.492318106754349 2.314120827028274 6.429233634836451
upperback 0.12011795362639865 3.855418077247489 2.1618657993919177
thorax -4.883330825610128 1.7843688170977323 -2.1443388124870624
lowerneck -16.230117609581477 -2.9681811814562957 -1.8456264175824924
upperneck 20.48605541331645 -3.867904499410468 0.8837814916359777
head 9.180955081726255 -1.826160273057316 0.05188448022792688
lclavicle -1.958715023726662e-15 9.017081272528143e-16
lhumerus -35.58940189358412 6.1395646100146655 81.21861993992954
lradius 25.778931592021014
lwrist 5.797288440610297
lhand -26.23159238236027 23.742478968234323
lfingers 7.12502
lthumb 0.22622394953854075 53.35219921529943
rclavicle -1.9523814020578195e-15 9.075615543108754e-16
rhumerus -24.721991002231537 -10.623712320767229 -82.75277523684217
rradius 29.73115275274427
rwrist 0.874614575054026
rhand -17.73697873229999 23.882077963631982
rfingers 7.12502
rthumb 8.511194215009079 -6.038888255541016
